<svg width="145" height="144" viewBox="0 0 145 144" fill="none" xmlns="http://www.w3.org/2000/svg">
<path d="M117.5 58.5V110.25C117.5 111.51 116.51 112.5 115.25 112.5C113.99 112.5 113 111.51 113 110.25V78.75C113 75.015 109.985 72 106.25 72C106.07 72 104.18 71.955 104 72V76.5C104.27 76.365 105.935 76.5 106.25 76.5C107.51 76.5 108.5 77.49 108.5 78.75V110.25C108.5 113.985 111.515 117 115.25 117C118.985 117 122 113.985 122 110.25V58.5H117.5Z" fill="#1B1B1B"/>
<path d="M95.045 135H40.955C36.005 135 32 130.995 32 126.045V17.955C32 13.005 36.005 9 40.955 9H95.045C99.995 9 104 13.005 104 17.955V126.045C104 130.995 99.995 135 95.045 135Z" fill="url(#paint0_linear_101_7)"/>
<path d="M90.365 54H45.635C43.07 54 41 51.93 41 49.365V22.635C41 20.07 43.07 18 45.635 18H90.365C92.93 18 95 20.07 95 22.635V49.365C95 51.93 92.93 54 90.365 54Z" fill="url(#paint1_linear_101_7)"/>
<path d="M95 27H41V22.635C41 20.07 43.07 18 45.635 18H90.365C92.93 18 95 20.07 95 22.635V27Z" fill="url(#paint2_linear_101_7)"/>
<path d="M104.045 126H32C29.525 126 27.5 128.025 27.5 130.5V135H108.5V130.455C108.5 127.98 106.52 126 104.045 126Z" fill="url(#paint3_linear_101_7)"/>
<path d="M88.25 31.5H70.25C68.99 31.5 68 32.49 68 33.75C68 35.01 68.99 36 70.25 36H88.25C89.51 36 90.5 35.01 90.5 33.75C90.5 32.49 89.51 31.5 88.25 31.5Z" fill="url(#paint4_linear_101_7)"/>
<path d="M104 33.525C104 33.84 104.045 34.11 104.18 34.38L108.32 43.425C108.455 43.695 108.5 44.01 108.5 44.28V58.23C108.5 60.885 110.48 62.955 112.955 62.955H120.11C121.145 62.955 122 62.055 122 60.93V44.82C122.002 44.5099 121.934 44.2033 121.802 43.9229C121.669 43.6425 121.476 43.3955 121.235 43.2L107.06 31.905C105.8 30.915 104 31.86 104 33.525ZM115.61 58.185H114.935C113.9 58.185 113.045 57.285 113.045 56.16V48.735C113.045 46.935 115.115 46.035 116.285 47.295L116.96 48.015C117.32 48.375 117.5 48.915 117.5 49.455V56.205C117.5 57.285 116.645 58.185 115.61 58.185Z" fill="url(#paint5_linear_101_7)"/>
<path d="M115.25 58.5C115.847 58.5 116.419 58.2629 116.841 57.841C117.263 57.419 117.5 56.8467 117.5 56.25C117.5 55.6533 117.263 55.081 116.841 54.659C116.419 54.2371 115.847 54 115.25 54C114.653 54 114.081 54.2371 113.659 54.659C113.237 55.081 113 55.6533 113 56.25C113 56.8467 113.237 57.419 113.659 57.841C114.081 58.2629 114.653 58.5 115.25 58.5Z" fill="#1B1B1B"/>
<path d="M104 63H32V67.5H104V63Z" fill="url(#paint6_linear_101_7)"/>
<g filter="url(#filter0_i_101_7)">
<path d="M116.96 58.5V110.25C116.96 111.51 115.97 112.5 114.71 112.5C113.45 112.5 112.46 111.51 112.46 110.25V78.75C112.46 75.015 109.445 72 105.71 72C105.53 72 103.64 71.955 103.46 72V76.5C103.73 76.365 105.395 76.5 105.71 76.5C106.97 76.5 107.96 77.49 107.96 78.75V110.25C107.96 113.985 110.975 117 114.71 117C118.445 117 121.46 113.985 121.46 110.25V58.5H116.96Z" fill="#464143"/>
</g>
<g filter="url(#filter1_i_101_7)">
<path d="M89.825 54H45.095C42.53 54 40.46 51.93 40.46 49.365V22.635C40.46 20.07 42.53 18 45.095 18H89.825C92.39 18 94.46 20.07 94.46 22.635V49.365C94.46 51.93 92.39 54 89.825 54Z" fill="url(#paint7_linear_101_7)"/>
<path d="M89.825 54H45.095C42.53 54 40.46 51.93 40.46 49.365V22.635C40.46 20.07 42.53 18 45.095 18H89.825C92.39 18 94.46 20.07 94.46 22.635V49.365C94.46 51.93 92.39 54 89.825 54Z" fill="url(#paint8_linear_101_7)"/>
</g>
<g filter="url(#filter2_i_101_7)">
<path d="M94.46 27H40.46V22.635C40.46 20.07 42.53 18 45.095 18H89.825C92.39 18 94.46 20.07 94.46 22.635V27Z" fill="url(#paint9_linear_101_7)"/>
<path d="M94.46 27H40.46V22.635C40.46 20.07 42.53 18 45.095 18H89.825C92.39 18 94.46 20.07 94.46 22.635V27Z" fill="url(#paint10_linear_101_7)"/>
</g>
<path d="M103.505 126H31.46C28.985 126 26.96 128.025 26.96 130.5V135H107.96V130.455C107.96 127.98 105.98 126 103.505 126Z" fill="url(#paint11_linear_101_7)"/>
<path d="M103.505 126H31.46C28.985 126 26.96 128.025 26.96 130.5V135H107.96V130.455C107.96 127.98 105.98 126 103.505 126Z" fill="url(#paint12_linear_101_7)"/>
<path d="M103.505 126H31.46C28.985 126 26.96 128.025 26.96 130.5V135H107.96V130.455C107.96 127.98 105.98 126 103.505 126Z" fill="url(#paint13_linear_101_7)"/>
<path d="M103.505 126H31.46C28.985 126 26.96 128.025 26.96 130.5V135H107.96V130.455C107.96 127.98 105.98 126 103.505 126Z" fill="url(#paint14_linear_101_7)"/>
<path d="M103.505 126H31.46C28.985 126 26.96 128.025 26.96 130.5V135H107.96V130.455C107.96 127.98 105.98 126 103.505 126Z" fill="url(#paint15_linear_101_7)"/>
<path d="M87.71 31.5H69.71C68.45 31.5 67.46 32.49 67.46 33.75C67.46 35.01 68.45 36 69.71 36H87.71C88.97 36 89.96 35.01 89.96 33.75C89.96 32.49 88.97 31.5 87.71 31.5Z" fill="url(#paint16_linear_101_7)"/>
<path d="M87.71 31.5H69.71C68.45 31.5 67.46 32.49 67.46 33.75C67.46 35.01 68.45 36 69.71 36H87.71C88.97 36 89.96 35.01 89.96 33.75C89.96 32.49 88.97 31.5 87.71 31.5Z" fill="url(#paint17_radial_101_7)"/>
<g filter="url(#filter3_ii_101_7)">
<path d="M103.46 33.525C103.46 33.84 103.505 34.11 103.64 34.38L107.78 43.425C107.915 43.695 107.96 44.01 107.96 44.28V58.23C107.96 60.885 109.94 62.955 112.415 62.955H119.57C120.605 62.955 121.46 62.055 121.46 60.93V44.82C121.462 44.5099 121.394 44.2033 121.262 43.9229C121.129 43.6425 120.936 43.3955 120.695 43.2L106.52 31.905C105.26 30.915 103.46 31.86 103.46 33.525ZM115.07 58.185H114.395C113.36 58.185 112.505 57.285 112.505 56.16V48.735C112.505 46.935 114.575 46.035 115.745 47.295L116.42 48.015C116.78 48.375 116.96 48.915 116.96 49.455V56.205C116.96 57.285 116.105 58.185 115.07 58.185Z" fill="url(#paint18_linear_101_7)"/>
</g>
<path d="M114.71 58.5C115.307 58.5 115.879 58.2629 116.301 57.841C116.723 57.419 116.96 56.8467 116.96 56.25C116.96 55.6533 116.723 55.081 116.301 54.659C115.879 54.2371 115.307 54 114.71 54C114.113 54 113.541 54.2371 113.119 54.659C112.697 55.081 112.46 55.6533 112.46 56.25C112.46 56.8467 112.697 57.419 113.119 57.841C113.541 58.2629 114.113 58.5 114.71 58.5Z" fill="url(#paint19_radial_101_7)"/>
<path d="M103.46 63H31.46V67.5H103.46V63Z" fill="url(#paint20_linear_101_7)"/>
<defs>
<filter id="filter0_i_101_7" x="103.46" y="58.25" width="18.25" height="58.75" filterUnits="userSpaceOnUse" color-interpolation-filters="sRGB">
<feFlood flood-opacity="0" result="BackgroundImageFix"/>
<feBlend mode="normal" in="SourceGraphic" in2="BackgroundImageFix" result="shape"/>
<feColorMatrix in="SourceAlpha" type="matrix" values="0 0 0 0 0 0 0 0 0 0 0 0 0 0 0 0 0 0 127 0" result="hardAlpha"/>
<feOffset dx="0.4" dy="-0.25"/>
<feGaussianBlur stdDeviation="0.125"/>
<feComposite in2="hardAlpha" operator="arithmetic" k2="-1" k3="1"/>
<feColorMatrix type="matrix" values="0 0 0 0 0.207843 0 0 0 0 0.145098 0 0 0 0 0.211765 0 0 0 1 0"/>
<feBlend mode="normal" in2="shape" result="effect1_innerShadow_101_7"/>
</filter>
<filter id="filter1_i_101_7" x="40.46" y="17.7" width="54.3" height="36.3" filterUnits="userSpaceOnUse" color-interpolation-filters="sRGB">
<feFlood flood-opacity="0" result="BackgroundImageFix"/>
<feBlend mode="normal" in="SourceGraphic" in2="BackgroundImageFix" result="shape"/>
<feColorMatrix in="SourceAlpha" type="matrix" values="0 0 0 0 0 0 0 0 0 0 0 0 0 0 0 0 0 0 127 0" result="hardAlpha"/>
<feOffset dx="0.5" dy="-0.5"/>
<feGaussianBlur stdDeviation="0.15"/>
<feComposite in2="hardAlpha" operator="arithmetic" k2="-1" k3="1"/>
<feColorMatrix type="matrix" values="0 0 0 0 0.835294 0 0 0 0 0.811765 0 0 0 0 0.847059 0 0 0 1 0"/>
<feBlend mode="normal" in2="shape" result="effect1_innerShadow_101_7"/>
</filter>
<filter id="filter2_i_101_7" x="39.96" y="18" width="54.5" height="9.5" filterUnits="userSpaceOnUse" color-interpolation-filters="sRGB">
<feFlood flood-opacity="0" result="BackgroundImageFix"/>
<feBlend mode="normal" in="SourceGraphic" in2="BackgroundImageFix" result="shape"/>
<feColorMatrix in="SourceAlpha" type="matrix" values="0 0 0 0 0 0 0 0 0 0 0 0 0 0 0 0 0 0 127 0" result="hardAlpha"/>
<feOffset dx="-0.5" dy="0.5"/>
<feGaussianBlur stdDeviation="0.25"/>
<feComposite in2="hardAlpha" operator="arithmetic" k2="-1" k3="1"/>
<feColorMatrix type="matrix" values="0 0 0 0 0.227451 0 0 0 0 0.152941 0 0 0 0 0.301961 0 0 0 1 0"/>
<feBlend mode="normal" in2="shape" result="effect1_innerShadow_101_7"/>
</filter>
<filter id="filter3_ii_101_7" x="103.31" y="31.3518" width="18.3001" height="31.7531" filterUnits="userSpaceOnUse" color-interpolation-filters="sRGB">
<feFlood flood-opacity="0" result="BackgroundImageFix"/>
<feBlend mode="normal" in="SourceGraphic" in2="BackgroundImageFix" result="shape"/>
<feColorMatrix in="SourceAlpha" type="matrix" values="0 0 0 0 0 0 0 0 0 0 0 0 0 0 0 0 0 0 127 0" result="hardAlpha"/>
<feOffset dx="-0.15" dy="0.15"/>
<feGaussianBlur stdDeviation="0.075"/>
<feComposite in2="hardAlpha" operator="arithmetic" k2="-1" k3="1"/>
<feColorMatrix type="matrix" values="0 0 0 0 0.964706 0 0 0 0 0.952941 0 0 0 0 0.968627 0 0 0 1 0"/>
<feBlend mode="normal" in2="shape" result="effect1_innerShadow_101_7"/>
<feColorMatrix in="SourceAlpha" type="matrix" values="0 0 0 0 0 0 0 0 0 0 0 0 0 0 0 0 0 0 127 0" result="hardAlpha"/>
<feOffset dx="0.15" dy="-0.15"/>
<feGaussianBlur stdDeviation="0.15"/>
<feComposite in2="hardAlpha" operator="arithmetic" k2="-1" k3="1"/>
<feColorMatrix type="matrix" values="0 0 0 0 0.482353 0 0 0 0 0.329412 0 0 0 0 0.419608 0 0 0 1 0"/>
<feBlend mode="normal" in2="effect1_innerShadow_101_7" result="effect2_innerShadow_101_7"/>
</filter>
<linearGradient id="paint0_linear_101_7" x1="32.018" y1="71.991" x2="104.018" y2="71.991" gradientUnits="userSpaceOnUse">
<stop stop-color="#E2B825"/>
<stop offset="1" stop-color="#E69A29"/>
</linearGradient>
<linearGradient id="paint1_linear_101_7" x1="95.018" y1="35.991" x2="41.018" y2="35.991" gradientUnits="userSpaceOnUse">
<stop stop-color="#D2D2D2"/>
<stop offset="1" stop-color="#9A9A9A"/>
</linearGradient>
<linearGradient id="paint2_linear_101_7" x1="95.018" y1="22.491" x2="41.018" y2="22.491" gradientUnits="userSpaceOnUse">
<stop stop-color="#503469"/>
<stop offset="1" stop-color="#1B1B1B"/>
</linearGradient>
<linearGradient id="paint3_linear_101_7" x1="108.518" y1="130.491" x2="27.518" y2="130.491" gradientUnits="userSpaceOnUse">
<stop stop-color="#D2D2D2"/>
<stop offset="1" stop-color="#9A9A9A"/>
</linearGradient>
<linearGradient id="paint4_linear_101_7" x1="90.518" y1="33.741" x2="68.018" y2="33.741" gradientUnits="userSpaceOnUse">
<stop stop-color="#503469"/>
<stop offset="1" stop-color="#1B1B1B"/>
</linearGradient>
<linearGradient id="paint5_linear_101_7" x1="122.018" y1="47.241" x2="104.018" y2="47.241" gradientUnits="userSpaceOnUse">
<stop stop-color="#D2D2D2"/>
<stop offset="1" stop-color="#9A9A9A"/>
</linearGradient>
<linearGradient id="paint6_linear_101_7" x1="104.018" y1="65.241" x2="32.018" y2="65.241" gradientUnits="userSpaceOnUse">
<stop stop-color="#D2D2D2"/>
<stop offset="1" stop-color="#9A9A9A"/>
</linearGradient>
<linearGradient id="paint7_linear_101_7" x1="93.0965" y1="33.246" x2="40.46" y2="33.246" gradientUnits="userSpaceOnUse">
<stop stop-color="#D2C7D9"/>
<stop offset="1" stop-color="#C6BDCB"/>
</linearGradient>
<linearGradient id="paint8_linear_101_7" x1="94.46" y1="40.5945" x2="89.8475" y2="40.5945" gradientUnits="userSpaceOnUse">
<stop stop-color="#998DA0"/>
<stop offset="1" stop-color="#998DA0" stop-opacity="0"/>
</linearGradient>
<linearGradient id="paint9_linear_101_7" x1="94.478" y1="22.491" x2="40.478" y2="22.491" gradientUnits="userSpaceOnUse">
<stop stop-color="#513E63"/>
<stop offset="1" stop-color="#433B4A"/>
</linearGradient>
<linearGradient id="paint10_linear_101_7" x1="40.46" y1="23.9445" x2="43.16" y2="23.9445" gradientUnits="userSpaceOnUse">
<stop stop-color="#4A454D"/>
<stop offset="1" stop-color="#4A454D" stop-opacity="0"/>
</linearGradient>
<linearGradient id="paint11_linear_101_7" x1="107.978" y1="130.491" x2="25.673" y2="130.491" gradientUnits="userSpaceOnUse">
<stop stop-color="#D7C7E2"/>
<stop offset="1" stop-color="#A69AAE"/>
</linearGradient>
<linearGradient id="paint12_linear_101_7" x1="32.1485" y1="141.462" x2="32.5085" y2="130.5" gradientUnits="userSpaceOnUse">
<stop stop-color="#605567"/>
<stop offset="1" stop-color="#605567" stop-opacity="0"/>
</linearGradient>
<linearGradient id="paint13_linear_101_7" x1="67.46" y1="124.367" x2="67.46" y2="130.5" gradientUnits="userSpaceOnUse">
<stop stop-color="#D8CAD3"/>
<stop offset="1" stop-color="#D8CAD3" stop-opacity="0"/>
</linearGradient>
<linearGradient id="paint14_linear_101_7" x1="26.96" y1="133.547" x2="31.7885" y2="133.457" gradientUnits="userSpaceOnUse">
<stop stop-color="#605567"/>
<stop offset="1" stop-color="#605567" stop-opacity="0"/>
</linearGradient>
<linearGradient id="paint15_linear_101_7" x1="107.96" y1="133.727" x2="102.511" y2="133.727" gradientUnits="userSpaceOnUse">
<stop stop-color="#F9F4FD"/>
<stop offset="1" stop-color="#F9F4FD" stop-opacity="0"/>
</linearGradient>
<linearGradient id="paint16_linear_101_7" x1="89.978" y1="33.741" x2="67.478" y2="33.741" gradientUnits="userSpaceOnUse">
<stop stop-color="#503668"/>
<stop offset="1" stop-color="#352B3C"/>
</linearGradient>
<radialGradient id="paint17_radial_101_7" cx="0" cy="0" r="1" gradientUnits="userSpaceOnUse" gradientTransform="translate(84.974 33.1605) rotate(90) scale(1.88068 15.473)">
<stop stop-color="#65527A"/>
<stop offset="1" stop-color="#65527A" stop-opacity="0"/>
</radialGradient>
<linearGradient id="paint18_linear_101_7" x1="114.602" y1="44.0145" x2="109.684" y2="59.625" gradientUnits="userSpaceOnUse">
<stop stop-color="#D4C4D8"/>
<stop offset="1" stop-color="#A699AA"/>
</linearGradient>
<radialGradient id="paint19_radial_101_7" cx="0" cy="0" r="1" gradientUnits="userSpaceOnUse" gradientTransform="translate(115.588 55.935) rotate(146.041) scale(2.07688 2.00397)">
<stop stop-color="#4F494A"/>
<stop offset="1" stop-color="#31222E"/>
</radialGradient>
<linearGradient id="paint20_linear_101_7" x1="103.478" y1="65.241" x2="31.478" y2="65.241" gradientUnits="userSpaceOnUse">
<stop stop-color="#ECE4F3"/>
<stop offset="0.017" stop-color="#ECE4F3"/>
<stop offset="0.059" stop-color="#D3C6DB"/>
<stop offset="0.322" stop-color="#D3C6DB"/>
<stop offset="0.961" stop-color="#ADA2B4"/>
<stop offset="1" stop-color="#6F6974"/>
</linearGradient>
</defs>
</svg>
